<svg width="164" height="70" viewBox="0 0 164 70" fill="none" xmlns="http://www.w3.org/2000/svg">
<path d="M159.375 25.452C162.436 18.6258 155.144 8.84198 146.894 12.9583C143.006 5.93024 130.059 6.44191 127.27 11.5094C123.627 12.1289 116.556 11.5816 114.052 14.9408C111.424 13.7935 109.08 14.1985 105.975 15.6074C104.856 16.1156 101.231 17.9856 100.372 18.7979C98.6709 16.2957 95.5021 14.9397 92.4932 15.4089C89.1377 15.62 85.7381 16.9439 84.2968 20.0415C81.7123 17.5256 77.5231 18.2254 73.9171 18.5088C73.0348 17.4728 71.8915 16.6904 70.6114 16.2246C74.4829 13.4264 72.8805 6.76774 68.0617 6.07594C67.1759 5.81436 67.4669 6.09429 67.1805 5.22238C66.0118 -0.772049 54.9491 -1.01068 53.16 6.71152C50.6671 3.84108 43.3404 3.75618 40.2028 8.0171C40.0254 8.06873 39.8492 8.12494 39.6752 8.19034C39.2184 7.96777 29.6434 2.37259 29.415 2.39783C28.3019 1.94237 27.0705 1.77028 25.8739 1.91483C24.9336 2.02612 24.0083 2.32784 23.1816 2.80051C22.5415 3.23074 9.20863 10.6065 9.09268 11.0321C8.84687 11.2524 8.56512 11.5461 8.37496 11.7813C7.62362 12.6899 7.12852 13.7442 6.90474 14.8915C6.82705 15.3102 6.8027 15.5385 6.78415 15.9458C6.7656 16.3233 6.78415 26.5511 6.77835 26.9044C3.73818 28.8662 0.852229 30.0491 0.818604 34.3914C0.818604 38.229 3.97356 41.3519 7.85319 41.3519C10.4922 41.4838 11.7502 39.834 13.8141 38.9621L21.3681 43.2781C21.4818 43.3424 21.5966 43.4032 21.7137 43.4605C21.5119 49.6374 26.7076 55.2199 32.9537 55.5974C31.851 61.7352 42.2018 67.6183 48.5998 62.1218C49.91 69.1442 61.6301 71.3951 67.642 66.7648C70.1882 69.9725 74.1409 68.5717 77.6089 68.3813C80.7245 68.0463 123.009 63.8886 123.82 63.7681C126.617 63.3517 129.546 63.3276 130.951 60.9734C134.736 61.4369 138.715 61.1237 140.673 57.6533C145.957 61.4553 155.256 56.7584 156.203 49.4159C161.787 48.4431 164.528 37.6932 160.046 33.0985C161.327 31.3558 161.167 27.3955 159.372 25.452H159.375Z" fill="white"/>
<path d="M59.7969 70C57.8536 70 55.9011 69.6592 54.1676 69.0064C51.1669 67.8775 49.0311 65.9077 48.136 63.4973C44.3097 66.0385 39.7842 65.2033 36.9029 63.5856C33.8024 61.8452 31.9797 59.07 32.0597 56.3246C29.168 55.9369 26.3841 54.4821 24.3155 52.2519C22.1288 49.8954 20.9252 46.9607 20.8916 43.9411L13.7758 39.8764C13.3074 40.1058 12.8714 40.3789 12.4169 40.6634C11.1612 41.4481 9.86141 42.2604 7.83695 42.1652C5.74872 42.1594 3.78456 41.3506 2.30505 39.8867C0.817436 38.4159 0 36.4644 0 34.3913C0.033625 30.1258 2.56594 28.561 5.24667 26.9043C5.48088 26.7598 5.72089 26.6106 5.96207 26.4592C5.96207 25.8294 5.96207 24.5995 5.96091 23.3191C5.95743 19.2946 5.95627 16.3828 5.96671 15.9469C5.96671 15.9342 5.96671 15.9216 5.96671 15.9101C5.98642 15.4604 6.01656 15.2 6.09657 14.7652C6.09773 14.756 6.10005 14.7468 6.10121 14.7388C6.35049 13.4573 6.89545 12.2974 7.72216 11.2924C7.7268 11.2867 7.73144 11.281 7.73608 11.2752C7.94363 11.0182 8.23466 10.7131 8.50482 10.4664C9.00803 9.95702 10.9351 8.80632 19.4005 4.02455C21.0157 3.11248 22.5404 2.25088 22.7236 2.12927C22.7386 2.11895 22.7584 2.10748 22.7734 2.0983C23.6859 1.5763 24.726 1.23441 25.7788 1.10936C27.1111 0.948745 28.4793 1.13575 29.7327 1.64857L29.7303 1.65316C30.295 1.86999 31.7907 2.72355 37.2055 5.8418C38.2421 6.43953 39.2358 7.01086 39.732 7.29194C41.3774 5.23376 44.0476 3.99128 47.1145 3.86852C49.2885 3.78247 51.3257 4.30562 52.7496 5.27506C54.1989 1.56941 57.8038 -0.0539593 60.9958 0.00110915C64.5798 0.0630611 67.3776 2.0765 67.9782 5.01922C68.0026 5.09723 68.0235 5.16607 68.042 5.22687C68.1012 5.24179 68.1672 5.26014 68.2414 5.28079C70.7633 5.66742 72.7321 7.52483 73.3896 10.1417C73.9299 12.2928 73.4162 14.4646 72.077 15.9916C72.8921 16.4322 73.6307 16.9978 74.2615 17.6655C74.5085 17.6448 74.7589 17.6219 75.0105 17.6001C78.082 17.3259 81.521 17.0184 84.0603 18.7875C85.6372 16.3541 88.6159 14.8466 92.4074 14.6C95.4313 14.1422 98.5875 15.3537 100.533 17.654C102.08 16.6088 104.984 15.1633 105.635 14.8684C108.471 13.5812 110.973 12.9376 113.808 13.9667C116.067 11.5987 120.417 11.2821 123.956 11.0251C124.98 10.9505 125.955 10.8794 126.764 10.7658C128.321 8.39675 131.954 6.88352 136.18 6.87893H136.197C139.985 6.87893 144.752 8.21663 147.22 11.9165C150.729 10.4664 154.448 11.1639 157.297 13.8462C158.864 15.3228 160.026 17.2903 160.568 19.3886C161.101 21.4549 161.015 23.4912 160.322 25.3119C161.947 27.4757 162.075 30.9794 161.062 33.0032C163.48 35.9436 163.502 40.5131 162.394 43.8861C161.328 47.1282 159.314 49.3963 156.934 50.0813C156.591 51.9249 155.741 53.694 154.457 55.2267C153.146 56.7916 151.45 58.049 149.549 58.8601C146.494 60.1645 143.34 60.1209 140.93 58.7775C139.107 61.3037 135.963 62.3064 131.361 61.8372C129.898 63.799 127.464 64.1122 125.105 64.4151C124.723 64.4644 124.329 64.5149 123.947 64.5723C123.508 64.6377 113.38 65.6427 97.9776 67.1697C88.2599 68.1322 79.0826 69.042 77.7017 69.19C77.6878 69.1911 77.6727 69.1923 77.6588 69.1934C76.9724 69.2313 76.2709 69.3173 75.5276 69.4091C72.826 69.7418 69.7917 70.117 67.5237 67.8546C65.8193 68.9823 63.716 69.6948 61.3901 69.9231C60.8636 69.9747 60.3314 70.0011 59.7981 70.0011L59.7969 70ZM48.6033 61.3083C48.6949 61.3083 48.7865 61.3232 48.8746 61.3542C49.1529 61.4506 49.3581 61.6869 49.4114 61.9737C50.0236 65.2526 53.0197 66.8358 54.752 67.4875C58.9517 69.0672 64.0464 68.5062 67.1411 66.1234C67.4982 65.848 68.013 65.9111 68.2925 66.2633C70.027 68.4489 72.5999 68.1322 75.3247 67.7961C76.0552 67.7054 76.8112 67.6125 77.5463 67.5712C79.0038 67.4152 88.1428 66.51 97.8152 65.5509C109.705 64.3727 123.18 63.0373 123.704 62.9638C124.101 62.9042 124.504 62.8525 124.894 62.8032C127.228 62.5038 129.243 62.2445 130.248 60.5603C130.414 60.2815 130.732 60.1267 131.057 60.1668C135.69 60.7347 138.52 59.81 139.961 57.2574C140.076 57.0543 140.273 56.9097 140.503 56.8593C140.732 56.8088 140.972 56.8593 141.163 56.9958C143.17 58.4402 146.063 58.579 148.9 57.3675C152.407 55.8692 154.956 52.7085 155.394 49.3126C155.439 48.9592 155.712 48.677 156.067 48.6151C158.061 48.2674 159.887 46.2632 160.833 43.3847C161.85 40.2883 161.821 36.0824 159.46 33.664C159.183 33.3806 159.152 32.9401 159.387 32.6211C160.429 31.2043 160.315 27.673 158.772 26.0014C158.551 25.7628 158.495 25.4186 158.627 25.1226C160.048 21.9528 159.013 17.7056 156.165 15.0245C153.615 12.6233 150.372 12.1357 147.267 13.6845C146.872 13.8818 146.39 13.7338 146.176 13.3483C144.2 9.77575 139.729 8.50345 136.198 8.50345C136.193 8.50345 136.188 8.50345 136.183 8.50345C132.4 8.50689 129.11 9.87098 127.994 11.8982C127.874 12.1162 127.659 12.2687 127.412 12.3101C126.46 12.4718 125.303 12.5556 124.078 12.6451C120.643 12.8952 116.369 13.2061 114.716 15.4226C114.487 15.7289 114.075 15.8379 113.723 15.6841C111.513 14.7193 109.507 14.8994 106.321 16.3461C105.121 16.8911 101.676 18.6934 100.944 19.3852C100.768 19.5504 100.528 19.6319 100.287 19.6055C100.046 19.5791 99.8293 19.4494 99.6936 19.251C98.1712 17.0115 95.3305 15.7897 92.6242 16.2119C92.5987 16.2153 92.5744 16.2188 92.5489 16.2199C90.8247 16.3278 86.6436 16.9507 85.047 20.3822C84.9345 20.6231 84.7119 20.794 84.4487 20.8422C84.1855 20.8893 83.9154 20.8078 83.724 20.6219C81.6845 18.6372 78.3672 18.9332 75.1578 19.22C74.7624 19.2556 74.3705 19.29 73.9855 19.321C73.7212 19.3416 73.4626 19.2349 73.2922 19.0341C72.5107 18.1163 71.4868 17.4096 70.3308 16.9897C70.0468 16.8865 69.8427 16.6364 69.8009 16.3392C69.7592 16.0421 69.8856 15.7461 70.1302 15.5694C71.9588 14.2478 72.1895 12.1024 71.7964 10.5341C71.4057 8.97956 70.1905 7.2036 67.9481 6.88122C67.9087 6.87548 67.8693 6.86745 67.831 6.85598C67.6698 6.8078 67.5539 6.78141 67.4611 6.75961C66.8883 6.62653 66.6576 6.40396 66.5092 5.84066C66.4848 5.74888 66.4547 5.6353 66.4025 5.47468C66.3921 5.44256 66.3839 5.41044 66.377 5.37716C65.883 2.84287 63.3055 1.66808 60.9692 1.62678C58.3093 1.58203 54.8819 2.93236 53.9647 6.89269C53.8951 7.19213 53.6621 7.42617 53.3606 7.50074C53.0603 7.57416 52.7426 7.47435 52.5409 7.24146C51.5391 6.08847 49.4358 5.40126 47.1817 5.49189C44.5381 5.59744 42.1786 6.7206 40.8707 8.49656C40.764 8.64226 40.6109 8.74781 40.437 8.79829C40.2666 8.84762 40.1147 8.8981 39.9709 8.95088C39.7576 9.03118 39.521 9.01971 39.317 8.9199C39.1523 8.83959 38.3801 8.39675 36.3811 7.2449C33.9056 5.81886 29.7941 3.45092 29.19 3.17787C29.161 3.16984 29.1332 3.15951 29.1054 3.14804C28.1129 2.74191 27.0311 2.59391 25.9771 2.72011C25.1492 2.81878 24.3341 3.08494 23.6164 3.49107C23.3462 3.66431 22.2934 4.25973 20.2156 5.43338C17.0514 7.22081 10.5223 10.9092 9.73851 11.5379C9.71068 11.5724 9.68053 11.6045 9.64691 11.6343C9.44052 11.819 9.19819 12.0703 9.03702 12.2665C9.03006 12.2756 9.02195 12.286 9.01383 12.2951C8.35524 13.0913 7.91928 14.0091 7.71869 15.0256C7.71869 15.0291 7.71753 15.0325 7.71637 15.0371C7.64912 15.3996 7.62593 15.5935 7.60969 15.9572C7.60969 15.9664 7.60969 15.9755 7.60969 15.9847C7.59926 16.2578 7.60274 20.5061 7.60506 23.3169C7.60738 25.5265 7.60738 26.7827 7.60506 26.9181C7.59926 27.1877 7.46012 27.4367 7.23286 27.5835C6.85603 27.8267 6.48152 28.0585 6.11976 28.2822C3.53759 29.878 1.67314 31.0299 1.64647 34.3959C1.64647 36.0285 2.29346 37.5715 3.46802 38.7337C4.64257 39.8959 6.20208 40.5361 7.85898 40.5361C7.8729 40.5361 7.88681 40.5361 7.90073 40.5361C9.41849 40.6129 10.4017 39.9968 11.5403 39.2855C12.141 38.9104 12.7624 38.5215 13.4976 38.2117C13.7353 38.1119 14.0066 38.128 14.2304 38.2553L21.7844 42.5713C21.8806 42.6264 21.9803 42.6791 22.0824 42.7285C22.3722 42.8696 22.5508 43.1656 22.5404 43.4845C22.4499 46.2551 23.5097 48.9776 25.526 51.1516C27.5122 53.2924 30.2393 54.6164 33.0094 54.7839C33.2436 54.7976 33.4604 54.9101 33.6053 55.0925C33.7503 55.2749 33.8094 55.5089 33.7688 55.7372C33.3502 58.065 34.8993 60.5901 37.7145 62.1699C40.3872 63.6694 44.7016 64.3956 48.0664 61.5045C48.2183 61.3737 48.4096 61.3049 48.6056 61.3049L48.6033 61.3083ZM9.88692 11.2523C9.88692 11.2523 9.88692 11.2534 9.88692 11.2546C9.88692 11.2546 9.88692 11.2534 9.88692 11.2523ZM9.88692 11.2488C9.88692 11.2488 9.88692 11.25 9.88692 11.2511C9.88692 11.2511 9.88692 11.25 9.88692 11.2488ZM9.88808 11.2454C9.88808 11.2454 9.88808 11.2477 9.88808 11.2488C9.88808 11.2488 9.88808 11.2465 9.88808 11.2454Z" fill="url(#paint0_linear_2955_958)"/>
<path d="M150.284 17.6105C149.773 20.045 148.299 21.5008 145.787 21.9528C148.299 22.406 149.773 23.8619 150.284 26.2952C150.796 23.8607 152.269 22.4049 154.782 21.9528C152.269 21.4997 150.796 20.0438 150.284 17.6105Z" fill="#FFC926"/>
<path d="M43.2523 51.2274C42.7409 53.6619 41.2672 55.1178 38.7546 55.5698C41.2672 56.023 42.7409 57.4788 43.2523 59.9122C43.7636 57.4777 45.2373 56.0218 47.7499 55.5698C45.2373 55.1166 43.7636 53.6608 43.2523 51.2274Z" fill="#FFC926"/>
<path d="M146.132 43.3137C145.504 46.3 143.696 48.0875 140.613 48.6427C143.696 49.198 145.504 50.9854 146.132 53.9718C146.76 50.9854 148.568 49.198 151.651 48.6427C148.568 48.0875 146.76 46.3 146.132 43.3137Z" fill="#FFC926"/>
<path d="M152.67 37.8412C152.299 39.6045 151.233 40.6589 149.412 40.987C151.233 41.3151 152.299 42.3694 152.67 44.1328C153.041 42.3694 154.108 41.3151 155.929 40.987C154.108 40.6589 153.041 39.6045 152.67 37.8412Z" fill="#FFC926"/>
<path d="M61.506 17.0495C62.1344 14.0632 63.942 12.2758 67.0251 11.7205C63.942 11.1652 62.1344 9.37779 61.506 6.39148C60.8775 9.37779 59.0699 11.1652 55.9868 11.7205C59.0699 12.2758 60.8775 14.0632 61.506 17.0495Z" fill="#FFC926"/>
<path d="M54.9665 22.5219C55.3376 20.7586 56.4043 19.7042 58.2247 19.3761C56.4043 19.048 55.3376 17.9937 54.9665 16.2303C54.5955 17.9937 53.5288 19.048 51.7084 19.3761C53.5288 19.7042 54.5955 20.7586 54.9665 22.5219Z" fill="#FFC926"/>
<path d="M72.1106 59.2468C72.1106 59.2147 72.121 59.1849 72.1419 59.1596C72.1628 59.1344 72.1929 59.1195 72.2347 59.1149L73.0602 59.0323C73.088 59.03 73.1182 59.0369 73.1495 59.0564C73.1808 59.0747 73.197 59.1023 73.197 59.139L73.1936 62.9421C73.1936 63.0224 73.1472 63.066 73.0556 63.0752L72.23 63.1578C72.1477 63.1659 72.106 63.1303 72.106 63.05L72.1094 59.2468H72.1106Z" fill="#FF94B7"/>
<path d="M74.6696 58.9944C74.6696 58.9565 74.68 58.9244 74.7009 58.9003C74.7217 58.8751 74.7519 58.8613 74.7936 58.8567L76.6082 58.6743C76.8007 58.6548 76.9816 58.672 77.1509 58.7248C77.319 58.7776 77.4662 58.8579 77.5915 58.9646C77.7167 59.0724 77.8152 59.202 77.8871 59.3558C77.959 59.5095 77.995 59.677 77.995 59.8583C77.995 59.9822 77.9776 60.1003 77.9428 60.2162C77.908 60.3321 77.8593 60.4399 77.7978 60.5443C77.7364 60.6476 77.6622 60.7428 77.5764 60.83C77.4917 60.9172 77.3978 60.9941 77.297 61.0606L78.0181 62.3054C78.0309 62.3295 78.0483 62.3581 78.068 62.3903C78.0889 62.4224 78.0993 62.4511 78.0993 62.4775C78.0993 62.5061 78.09 62.5302 78.0703 62.5474C78.0506 62.5647 78.0239 62.575 77.9903 62.5784L77.0268 62.6759C76.9943 62.6794 76.9665 62.6725 76.941 62.6576C76.9155 62.6415 76.8992 62.6186 76.8923 62.5887L76.2105 61.414L75.756 61.4598V62.6874C75.7548 62.7654 75.7119 62.809 75.625 62.817L74.7901 62.9008C74.753 62.9042 74.7229 62.8974 74.7009 62.8813C74.6788 62.8652 74.6672 62.8366 74.6672 62.7964L74.6707 58.9967L74.6696 58.9944ZM76.8679 59.9822C76.8679 59.9271 76.8575 59.8743 76.8366 59.8216C76.8158 59.7688 76.7868 59.7217 76.7497 59.6804C76.7126 59.6391 76.6674 59.6047 76.6152 59.5795C76.563 59.5542 76.505 59.5393 76.4413 59.537C76.3891 59.5382 76.3392 59.5405 76.294 59.5428C76.2476 59.5451 76.1978 59.5485 76.1433 59.5542L75.756 59.5933V60.5925L76.272 60.5409C76.3056 60.5374 76.3357 60.534 76.3624 60.5294C76.3891 60.5248 76.4181 60.5191 76.4494 60.5122C76.5155 60.4984 76.5734 60.4743 76.6268 60.4388C76.6789 60.4032 76.723 60.3619 76.7589 60.3137C76.7949 60.2655 76.8216 60.2128 76.8401 60.1554C76.8587 60.098 76.8679 60.0407 76.8679 59.9822Z" fill="#FF94B7"/>
<path d="M79.1847 58.54C79.1847 58.5022 79.1951 58.4701 79.216 58.446C79.2369 58.4207 79.267 58.407 79.3088 58.4024L81.1234 58.22C81.3158 58.2004 81.4967 58.2177 81.666 58.2704C81.8341 58.3232 81.9814 58.4035 82.1066 58.5102C82.2318 58.618 82.3304 58.7477 82.4023 58.9014C82.4741 59.0552 82.5101 59.2227 82.5101 59.4039C82.5101 59.5278 82.4927 59.646 82.4579 59.7619C82.4231 59.8777 82.3744 59.9856 82.313 60.09C82.2515 60.1932 82.1773 60.2885 82.0915 60.3768C82.0069 60.464 81.913 60.5409 81.8121 60.6074L82.5333 61.8522C82.546 61.8763 82.5634 61.9049 82.5831 61.9371C82.604 61.9692 82.6144 61.9979 82.6144 62.0243C82.6144 62.0529 82.6052 62.077 82.5855 62.0942C82.5658 62.1114 82.5391 62.1218 82.5055 62.1252L81.5419 62.2227C81.5095 62.2262 81.4816 62.2193 81.4561 62.2044C81.4306 62.1883 81.4144 62.1654 81.4074 62.1355L80.7256 60.9607L80.2711 61.0066V62.2342C80.27 62.3122 80.2271 62.3558 80.1401 62.3639L79.3053 62.4476C79.2682 62.451 79.238 62.4453 79.216 62.4281C79.194 62.4109 79.1824 62.3833 79.1824 62.3432L79.1859 58.5435L79.1847 58.54ZM81.3831 59.5278C81.3831 59.4728 81.3726 59.42 81.3529 59.3672C81.3321 59.3144 81.3031 59.2674 81.266 59.2261C81.2289 59.1848 81.1836 59.1504 81.1315 59.1251C81.0793 59.0999 81.0213 59.085 80.9575 59.0827C80.9054 59.0838 80.8555 59.0861 80.8103 59.0884C80.7639 59.0907 80.7141 59.0942 80.6596 59.0999L80.2723 59.1389V60.1382L80.7883 60.0865C80.8219 60.0831 80.852 60.0797 80.8787 60.0751C80.9054 60.0705 80.9344 60.0647 80.9657 60.0579C81.0317 60.0441 81.0897 60.0188 81.1431 59.9844C81.1952 59.9489 81.2393 59.9076 81.2752 59.8594C81.3112 59.8112 81.3379 59.7584 81.3564 59.7011C81.375 59.6437 81.3842 59.5863 81.3842 59.5278H81.3831Z" fill="#FF94B7"/>
<path d="M83.6939 58.087C83.6939 58.0491 83.7043 58.017 83.7264 57.9929C83.7472 57.9677 83.7786 57.9539 83.818 57.9493L86.6054 57.6694C86.646 57.6648 86.6784 57.674 86.7004 57.6946C86.7225 57.7164 86.7341 57.7462 86.7341 57.7864V58.4598C86.7341 58.4908 86.7225 58.5206 86.6993 58.5516C86.6773 58.5814 86.6436 58.5986 86.6007 58.6032L84.7803 58.7868V59.4614L86.1845 59.3203C86.2204 59.3168 86.2494 59.3214 86.2726 59.3363C86.2958 59.3501 86.3074 59.3765 86.3074 59.4144V60.0029C86.3074 60.0281 86.2958 60.0534 86.2761 60.0798C86.2552 60.105 86.2251 60.1199 86.1856 60.1245L84.778 60.2656V60.962L86.6657 60.7727C86.7503 60.7647 86.792 60.8014 86.792 60.8851V61.5689C86.792 61.5873 86.7839 61.6045 86.7689 61.6194C86.7607 61.671 86.7225 61.6997 86.6541 61.7066L83.8133 61.9922C83.7762 61.9957 83.7461 61.9888 83.7241 61.9727C83.702 61.9567 83.6904 61.928 83.6904 61.8878L83.6939 58.0881V58.087Z" fill="#FF94B7"/>
<path d="M90.4734 58.3841C90.3783 58.3278 90.2763 58.2877 90.1673 58.2625C90.0583 58.2372 89.9423 58.2303 89.8194 58.243C89.6641 58.259 89.5214 58.3015 89.3927 58.3714C89.2629 58.4414 89.1527 58.5309 89.06 58.6376C88.9672 58.7443 88.8942 58.8671 88.842 59.0036C88.7898 59.1401 88.7631 59.2835 88.7631 59.4315C88.7631 59.5795 88.7886 59.7172 88.8408 59.8422C88.893 59.9673 88.966 60.074 89.0588 60.1623C89.1516 60.2495 89.2617 60.316 89.3916 60.3585C89.5203 60.4021 89.6629 60.4159 89.8183 60.3998C89.8844 60.3929 89.9493 60.3826 90.0131 60.3665C90.078 60.3505 90.1464 60.3321 90.2194 60.3103V59.5967C90.2194 59.5623 90.2299 59.5325 90.2508 59.5084C90.2716 59.4831 90.3018 59.4694 90.3435 59.4648L91.1076 59.3879C91.1354 59.3845 91.1656 59.3925 91.1969 59.412C91.2282 59.4304 91.2444 59.4579 91.2444 59.4946V60.8117C91.2433 60.861 91.2154 60.9034 91.1609 60.9402C91.0728 61.0067 90.9754 61.0664 90.8688 61.1191C90.7621 61.1719 90.6508 61.2178 90.5348 61.2557C90.4189 61.2947 90.3006 61.3268 90.1823 61.352C90.0629 61.3773 89.9481 61.3956 89.8357 61.4071C89.6374 61.4266 89.4461 61.422 89.264 61.391C89.0808 61.3601 88.9104 61.3084 88.7515 61.2327C88.5927 61.1581 88.4478 61.0641 88.3179 60.9516C88.188 60.8381 88.0756 60.7107 87.9828 60.5661C87.89 60.4216 87.817 60.2644 87.7671 60.0923C87.7161 59.9202 87.6918 59.739 87.6918 59.5462C87.6918 59.3535 87.7173 59.1665 87.7683 58.9841C87.8193 58.8017 87.8912 58.6284 87.9851 58.4644C88.079 58.2992 88.1915 58.1477 88.3214 58.0078C88.4512 57.8678 88.5962 57.745 88.7562 57.6383C88.915 57.5328 89.0866 57.4456 89.2687 57.3768C89.4519 57.3079 89.642 57.2643 89.8403 57.2448C90.0652 57.2219 90.2774 57.2311 90.4769 57.2724C90.6763 57.3137 90.8641 57.3814 91.0404 57.4789C91.0717 57.4938 91.096 57.5156 91.1134 57.5443C91.1308 57.573 91.1262 57.6074 91.1018 57.6475L90.6461 58.3301C90.6218 58.3623 90.5974 58.3841 90.5731 58.3967C90.5487 58.4093 90.5163 58.4047 90.4745 58.3829L90.4734 58.3841Z" fill="#FF94B7"/>
<path d="M93.4405 59.3604C93.4405 59.4946 93.4591 59.607 93.4973 59.6965C93.5356 59.786 93.5866 59.8571 93.6492 59.9099C93.7118 59.9627 93.7849 59.9983 93.8684 60.0166C93.9518 60.035 94.0388 60.0407 94.1292 60.0315C94.2232 60.0223 94.3113 59.9971 94.3959 59.9569C94.4794 59.9168 94.5524 59.8617 94.6162 59.7929C94.6788 59.7241 94.7287 59.6415 94.7658 59.5451C94.8029 59.4487 94.8214 59.3409 94.8214 59.2204L94.8238 56.9098C94.8238 56.8777 94.8354 56.8479 94.8585 56.8215C94.8817 56.7951 94.913 56.7802 94.9525 56.7767L95.7734 56.6941C95.8163 56.6896 95.8499 56.6987 95.8743 56.7205C95.8986 56.7423 95.9102 56.7687 95.9102 56.7997L95.9079 59.0942C95.9079 59.412 95.8592 59.6839 95.7629 59.9088C95.6667 60.1348 95.5368 60.3218 95.3734 60.4698C95.2099 60.6178 95.0209 60.7313 94.8075 60.8094C94.593 60.8885 94.3681 60.939 94.1316 60.9631C93.895 60.9872 93.6701 60.9803 93.4544 60.9424C93.2387 60.9057 93.0498 60.8277 92.8874 60.7107C92.7251 60.5937 92.5952 60.4331 92.499 60.2277C92.4028 60.0223 92.3552 59.7631 92.3552 59.451L92.3575 57.1565C92.3575 57.1255 92.368 57.0968 92.39 57.0704C92.4109 57.0441 92.4375 57.0291 92.47 57.0257L93.3106 56.9408C93.3385 56.9374 93.3686 56.9465 93.3988 56.966C93.4301 56.9855 93.4451 57.0131 93.4451 57.0475L93.4428 59.3581L93.4405 59.3604Z" fill="#FF94B7"/>
<path d="M97.1879 56.67C97.1879 56.6367 97.1995 56.608 97.2215 56.5817C97.2447 56.5553 97.2749 56.5404 97.3143 56.5369L98.1457 56.4532C98.177 56.4497 98.206 56.4578 98.2326 56.4773C98.2593 56.4968 98.2732 56.5243 98.2744 56.5599L98.2709 59.5221L99.8165 59.3672C99.8501 59.3638 99.8791 59.3718 99.9034 59.3913C99.9278 59.4108 99.9394 59.4395 99.9394 59.4773V60.1932C99.9394 60.2242 99.9278 60.2529 99.9069 60.2804C99.8849 60.308 99.8547 60.3252 99.8153 60.3309L97.3062 60.5833C97.2239 60.5913 97.1821 60.5558 97.1821 60.4766L97.1856 56.6711L97.1879 56.67Z" fill="#FF94B7"/>
<path d="M102.239 56.1401C102.241 56.1286 102.247 56.116 102.257 56.1033C102.268 56.0896 102.28 56.077 102.296 56.0643C102.311 56.0517 102.327 56.0414 102.343 56.0334C102.359 56.0253 102.376 56.0207 102.391 56.0185L103.109 55.9462C103.142 55.9427 103.169 55.9496 103.191 55.9668C103.213 55.984 103.23 55.9989 103.242 56.0116L103.312 56.1596L104.784 59.6977C104.799 59.7321 104.795 59.762 104.776 59.7872C104.755 59.8124 104.72 59.8274 104.669 59.8319L103.862 59.9134C103.819 59.918 103.785 59.9134 103.762 59.9008C103.739 59.8882 103.721 59.8641 103.708 59.8285C103.671 59.7402 103.634 59.6518 103.599 59.5635C103.564 59.4751 103.528 59.3868 103.492 59.2973L102 59.4476C101.964 59.544 101.928 59.6392 101.892 59.7344C101.856 59.8296 101.819 59.926 101.784 60.0212C101.76 60.0912 101.712 60.1291 101.64 60.136L100.811 60.2197C100.775 60.2232 100.746 60.2174 100.723 60.2014C100.7 60.1853 100.695 60.1589 100.71 60.121L102.24 56.1401H102.239ZM102.749 57.2529C102.713 57.3493 102.677 57.4525 102.64 57.5638C102.603 57.6751 102.567 57.7864 102.531 57.8988C102.495 58.0112 102.459 58.1225 102.422 58.2327C102.385 58.3428 102.349 58.446 102.313 58.5413L103.176 58.4541L102.747 57.2529H102.749Z" fill="#FF94B7"/>
<path d="M105.681 55.9037C105.681 55.8658 105.692 55.8337 105.712 55.8096C105.733 55.7844 105.763 55.7706 105.805 55.766L107.62 55.5836C107.812 55.5641 107.993 55.5813 108.162 55.6341C108.331 55.6869 108.478 55.7672 108.603 55.8739C108.728 55.9817 108.827 56.1113 108.899 56.2651C108.971 56.4188 109.007 56.5863 109.007 56.7676C109.007 56.8915 108.989 57.0096 108.954 57.1255C108.92 57.2402 108.871 57.3492 108.809 57.4536C108.748 57.5569 108.674 57.6521 108.588 57.7404C108.502 57.8288 108.409 57.9045 108.309 57.971L109.03 59.2158C109.043 59.2399 109.06 59.2686 109.08 59.3007C109.1 59.3328 109.111 59.3615 109.111 59.3879C109.111 59.4166 109.102 59.4407 109.082 59.4579C109.062 59.4751 109.036 59.4854 109.002 59.4889L108.038 59.5852C108.007 59.5887 107.978 59.5818 107.953 59.5669C107.927 59.5508 107.911 59.5279 107.904 59.498L107.222 58.3221L106.768 58.368V59.5956C106.766 59.6736 106.724 59.7172 106.637 59.7252L105.802 59.809C105.765 59.8124 105.734 59.8067 105.712 59.7895C105.69 59.7734 105.679 59.7447 105.679 59.7045L105.682 55.9048L105.681 55.9037ZM107.881 56.8915C107.881 56.8364 107.87 56.7836 107.849 56.7309C107.829 56.6781 107.8 56.631 107.762 56.5897C107.725 56.5484 107.68 56.514 107.628 56.4888C107.576 56.4635 107.518 56.4486 107.454 56.4463C107.402 56.4486 107.352 56.4498 107.307 56.4521C107.26 56.4544 107.211 56.4578 107.156 56.4635L106.769 56.5026V57.5018L107.285 57.4502C107.318 57.4467 107.348 57.4433 107.375 57.4387C107.402 57.4341 107.431 57.4284 107.462 57.4215C107.528 57.4077 107.586 57.3836 107.64 57.3481C107.692 57.3125 107.736 57.2712 107.772 57.223C107.808 57.1748 107.834 57.1221 107.853 57.0647C107.871 57.0073 107.881 56.95 107.881 56.8915Z" fill="#FF94B7"/>
<path d="M115.431 56.8514C115.431 57.0441 115.406 57.2288 115.355 57.4078C115.304 57.5868 115.232 57.7554 115.138 57.9137C115.044 58.0732 114.932 58.22 114.802 58.3543C114.672 58.4885 114.527 58.6067 114.369 58.7076C114.211 58.8086 114.04 58.8923 113.857 58.9566C113.673 59.0208 113.483 59.0633 113.286 59.0828L111.901 59.2216C111.867 59.225 111.837 59.2216 111.81 59.209C111.784 59.1975 111.771 59.1677 111.771 59.1206L111.774 55.3175C111.774 55.2796 111.785 55.2475 111.807 55.2223C111.829 55.1959 111.86 55.181 111.904 55.1775L113.29 55.0387C113.487 55.0192 113.676 55.0238 113.859 55.0525C114.041 55.0811 114.211 55.1316 114.37 55.2028C114.528 55.2739 114.673 55.3634 114.804 55.4724C114.935 55.5802 115.046 55.7053 115.139 55.8475C115.232 55.9886 115.304 56.1435 115.355 56.3133C115.406 56.482 115.431 56.6621 115.431 56.8525V56.8514ZM112.861 56.0598L112.858 58.1535L113.095 58.1294C113.138 58.1248 113.18 58.1191 113.221 58.1122C113.263 58.1053 113.304 58.0984 113.345 58.0904C113.486 58.0652 113.617 58.0193 113.738 57.9516C113.86 57.8839 113.967 57.8002 114.057 57.7015C114.148 57.6028 114.22 57.4892 114.271 57.363C114.323 57.2368 114.348 57.1015 114.348 56.9581C114.348 56.8055 114.319 56.6678 114.26 56.5462C114.201 56.4246 114.121 56.3213 114.02 56.2376C113.919 56.1538 113.801 56.0942 113.665 56.0552C113.53 56.0173 113.385 56.0058 113.232 56.0208L112.861 56.0586V56.0598Z" fill="#FF94B7"/>
<path d="M116.507 54.8137C116.507 54.7816 116.518 54.7518 116.539 54.7265C116.56 54.7013 116.59 54.6864 116.631 54.6818L117.457 54.5992C117.485 54.5969 117.515 54.6038 117.546 54.6233C117.578 54.6428 117.594 54.6692 117.594 54.7059L117.59 58.509C117.59 58.5893 117.544 58.6329 117.452 58.6421L116.627 58.7247C116.544 58.7328 116.503 58.6972 116.503 58.618L116.506 54.8149L116.507 54.8137Z" fill="#FF94B7"/>
<path d="M122.04 54.473C122.073 54.4879 122.096 54.5097 122.111 54.5372C122.126 54.5648 122.123 54.5992 122.103 54.6416L121.628 55.3426C121.607 55.3759 121.585 55.3954 121.562 55.4023C121.538 55.4092 121.509 55.4046 121.476 55.3874C121.384 55.33 121.283 55.2875 121.172 55.2623C121.062 55.2371 120.945 55.2313 120.821 55.2428C120.668 55.2589 120.526 55.3002 120.396 55.3701C120.266 55.439 120.155 55.5273 120.061 55.6352C119.967 55.743 119.894 55.8646 119.842 56C119.79 56.1365 119.763 56.2788 119.763 56.4268C119.763 56.5748 119.789 56.7124 119.841 56.8363C119.893 56.9614 119.966 57.0669 120.06 57.1541C120.154 57.2413 120.265 57.3067 120.394 57.3503C120.523 57.3939 120.664 57.4077 120.818 57.3916C120.942 57.379 121.059 57.3492 121.172 57.2998C121.284 57.2517 121.386 57.1886 121.478 57.1128C121.512 57.0899 121.539 57.0784 121.563 57.0796C121.585 57.0807 121.608 57.0956 121.63 57.122L122.11 57.7438C122.131 57.7817 122.133 57.815 122.118 57.8436C122.103 57.8723 122.08 57.8976 122.047 57.9194C121.871 58.0513 121.681 58.1591 121.478 58.2417C121.275 58.3243 121.061 58.3783 120.836 58.4001C120.637 58.4196 120.446 58.415 120.264 58.384C120.081 58.353 119.91 58.3002 119.752 58.2257C119.593 58.1511 119.448 58.057 119.318 57.9446C119.188 57.831 119.076 57.7025 118.983 57.5591C118.889 57.4146 118.817 57.2574 118.767 57.0853C118.716 56.9132 118.692 56.7308 118.692 56.5392C118.692 56.3476 118.717 56.1595 118.768 55.977C118.819 55.7946 118.891 55.6214 118.985 55.4573C119.079 55.2933 119.192 55.1407 119.321 55.0007C119.451 54.8608 119.596 54.738 119.756 54.6313C119.915 54.5258 120.087 54.4386 120.269 54.3697C120.452 54.3009 120.642 54.2573 120.84 54.2367C121.065 54.2137 121.277 54.2229 121.477 54.2642C121.676 54.3043 121.864 54.3732 122.04 54.4707V54.473Z" fill="#FF94B7"/>
<path d="M123.117 54.1564C123.117 54.1186 123.128 54.0864 123.15 54.0624C123.171 54.0371 123.202 54.0233 123.242 54.0188L126.029 53.7388C126.07 53.7342 126.102 53.7434 126.124 53.7641C126.146 53.7859 126.158 53.8157 126.158 53.8558V54.5293C126.158 54.5603 126.146 54.5901 126.123 54.6211C126.101 54.6509 126.067 54.6681 126.024 54.6727L124.204 54.8563V55.5308L125.608 55.3897C125.644 55.3863 125.673 55.3909 125.696 55.4058C125.719 55.4196 125.731 55.4459 125.731 55.4838V56.0724C125.731 56.0976 125.719 56.1228 125.7 56.1492C125.679 56.1745 125.649 56.1894 125.609 56.194L124.202 56.3351V57.0315L126.089 56.841C126.174 56.833 126.216 56.8697 126.216 56.9534V57.6372C126.216 57.6556 126.208 57.6728 126.192 57.6877C126.184 57.7393 126.146 57.768 126.078 57.7749L123.237 58.0606C123.2 58.064 123.17 58.0583 123.148 58.041C123.126 58.025 123.114 57.9963 123.114 57.9562L123.117 54.1564Z" fill="#FF94B7"/>
<path d="M59.7795 63.502C59.6879 63.502 59.5963 63.5008 59.5047 63.4974H59.4781C56.0958 63.3758 53.5763 60.9046 53.349 57.4857C53.1786 54.9147 54.3369 52.2668 56.5283 50.2201C58.0044 48.8411 59.8584 48.1608 62.0973 47.438C62.182 47.4105 62.2388 47.3359 62.2434 47.2464L62.3907 44.5206C62.3953 44.423 62.3362 44.329 62.2434 44.2865C62.211 44.2716 62.1762 44.2647 62.1426 44.2647C62.0811 44.2647 62.022 44.2888 61.9814 44.3347L61.2382 45.1527C60.9019 45.529 60.4277 45.7435 59.9349 45.7435C59.9152 45.7435 59.8943 45.7435 59.8734 45.7435C59.441 45.7286 59.0491 45.5531 58.7685 45.2514C58.4983 44.96 58.3603 44.5756 58.3823 44.1706L58.6084 39.9751C58.6374 39.429 58.8728 38.8898 59.2705 38.4584L62.8649 34.5991C62.8985 34.5635 62.9183 34.5165 62.9206 34.466L63.0029 32.9424C63.0064 32.8736 62.9774 32.8036 62.9252 32.7543C62.8788 32.7095 62.8162 32.6854 62.7548 32.6854C62.7466 32.6854 62.7385 32.6854 62.7304 32.6866L60.772 32.8885C60.6758 32.8988 60.5784 32.9034 60.4822 32.9034C60.4497 32.9034 60.4172 32.9034 60.3848 32.9011C59.7134 32.877 59.1059 32.6086 58.6757 32.1451C58.2618 31.6988 58.0531 31.1125 58.0867 30.493L58.1412 29.4857C58.2119 28.1687 59.361 27.0237 60.7581 26.8803L63.1617 26.6313C63.2684 26.6199 63.3484 26.5373 63.3542 26.4306L63.4992 23.7345C63.5571 22.6607 64.5995 21.7486 65.9248 21.6121L67.3498 21.4652C67.4565 21.4538 67.5643 21.4492 67.6698 21.4492C67.7046 21.4492 67.7406 21.4492 67.7753 21.4515C68.4478 21.4756 69.0357 21.7222 69.4299 22.1479C69.7557 22.4978 69.9204 22.9475 69.896 23.4133L69.7291 26.5201C69.7233 26.6176 69.7824 26.7117 69.8752 26.7553C69.9088 26.7702 69.9436 26.7782 69.9772 26.7782C70.0386 26.7782 70.0966 26.7541 70.1384 26.7094L71.4683 25.2661C71.9588 24.7338 72.6486 24.3862 73.3606 24.3116C73.5542 24.2955 77.8941 23.9387 79.3794 23.9101H79.398C79.4108 23.9101 79.4235 23.9101 79.4363 23.9101C79.9627 23.9284 80.554 24.3701 80.932 24.7774C81.4526 25.3395 81.7286 26.0875 81.6891 26.831L81.281 33.7168C81.2717 33.874 81.1824 34.0128 81.0433 34.0862L75.0696 37.271C75.0372 37.2871 74.9491 37.31 74.8366 37.31C74.7114 37.31 74.636 37.2813 74.6198 37.2664C74.505 37.1724 74.3705 37.0198 74.3821 36.8316L74.7438 30.6915C74.7496 30.5928 74.6905 30.4976 74.5966 30.4552C74.5641 30.4402 74.5293 30.4334 74.4957 30.4334C74.4331 30.4334 74.374 30.4575 74.3334 30.5045L69.2548 36.1915C69.2224 36.227 69.2038 36.2729 69.2015 36.3222L68.9626 40.7621L68.6786 46.3527C68.6751 46.425 68.7064 46.4973 68.7632 46.5466C68.8096 46.5868 68.8687 46.6097 68.9267 46.6097C68.9406 46.6097 68.9534 46.6086 68.9673 46.6063C80.2444 44.898 84.2238 46.3045 97.2691 46.838C113.054 47.4839 126.306 40.4983 130.705 38.2347C130.763 38.2049 130.791 38.1384 130.794 38.0718L131.003 34.7138C131.007 34.6449 130.978 34.5761 130.925 34.5256C130.879 34.482 130.818 34.4568 130.755 34.4568C130.747 34.4568 130.74 34.4568 130.732 34.4568C128.79 34.6507 123.451 35.1245 123.385 35.1245C121.424 35.1486 118.789 33.7283 118.673 30.4873C118.505 25.7743 122.7 24.79 123.979 24.6684L131.338 23.871C131.444 23.8596 131.524 23.777 131.53 23.6714L131.598 22.2729C131.603 22.2029 131.572 22.1329 131.519 22.0825C131.473 22.0389 131.411 22.0148 131.35 22.0148C131.341 22.0148 131.331 22.0148 131.322 22.0159L119.826 23.4018C119.762 23.4087 119.694 23.4121 119.625 23.4121C119.602 23.4121 119.579 23.4121 119.557 23.411C119.045 23.3926 118.569 23.1735 118.216 22.7926C117.811 22.3555 117.606 21.7566 117.641 21.1061L117.666 20.4511C117.733 19.1994 118.636 18.1669 119.768 18.0499L131.77 16.8108C131.876 16.7993 131.956 16.7167 131.962 16.61L132.054 15.1989C132.112 14.1251 133.154 13.213 134.479 13.0765L135.904 12.9296C136.011 12.9182 136.119 12.9136 136.224 12.9136C136.259 12.9136 136.295 12.9136 136.33 12.9159C137.002 12.94 137.59 13.1866 137.984 13.6123C138.31 13.9633 138.475 14.4119 138.449 14.8777L138.382 15.8448C138.379 15.9137 138.408 15.9836 138.46 16.033C138.506 16.0777 138.569 16.1018 138.63 16.1018C138.638 16.1018 138.646 16.1018 138.655 16.1007L140.534 15.9068C140.618 15.8976 140.702 15.8942 140.786 15.8942C140.814 15.8942 140.841 15.8942 140.869 15.8953C141.465 15.9171 142.01 16.1603 142.401 16.5825C142.796 17.0093 142.997 17.5749 142.964 18.1772L142.94 18.8311C142.873 20.0828 141.865 21.1257 140.597 21.2564L138.272 21.4962C138.165 21.5077 138.085 21.5903 138.079 21.697L137.381 34.7425C137.377 34.8297 137.423 34.9146 137.501 34.9627C137.541 34.9868 137.586 34.9995 137.63 34.9995C137.671 34.9995 137.713 34.9903 137.747 34.9662C146.388 28.8995 154.977 29.4341 154.977 29.4341C154.987 29.4341 154.998 29.4341 155.008 29.4341H155.024C155.197 29.441 155.353 29.5408 155.43 29.6968C155.516 29.8689 155.485 30.0766 155.352 30.2131L153.481 31.7963C153.437 31.8422 153.416 31.9064 153.424 31.973C153.432 32.0384 153.468 32.1003 153.524 32.1405L155.823 33.6319C155.976 33.7455 156.046 33.9428 155.997 34.1241C155.947 34.31 155.783 34.443 155.588 34.4557C155.588 34.4557 147.68 33.0204 137.148 41.1671C137.097 41.2061 137.064 41.2635 137.06 41.3289L136.404 52.8324C136.339 54.0325 135.291 55.0409 133.967 55.1774L132.541 55.3243C132.447 55.3335 132.352 55.3392 132.258 55.3392C132.226 55.3392 132.194 55.3392 132.163 55.3381C131.519 55.3151 130.942 55.0627 130.538 54.6279C130.166 54.2275 129.978 53.7055 130.007 53.156L130.479 44.5986C130.484 44.5114 130.437 44.4265 130.361 44.3783C130.32 44.3531 130.275 44.3404 130.231 44.3404C130.19 44.3404 130.151 44.3519 130.115 44.3726C125.869 46.8931 112.999 52.1842 97.4222 51.4844C90.3574 51.1666 79.8514 49.0499 68.5661 51.2882C68.4699 51.3077 68.4015 51.3869 68.3968 51.4844L68.3945 51.5269C68.2577 53.8615 67.9701 56.9327 67.1307 58.4391C66.0454 60.386 64.5589 63.0522 60.6213 63.4584C60.3488 63.487 60.0659 63.5008 59.7795 63.5008V63.502ZM131.002 27.9908C130.994 27.9908 130.987 27.9908 130.979 27.9908L123.646 28.748C123.14 28.7985 122.604 29.176 122.624 29.8873C122.631 30.1443 122.756 30.4139 122.959 30.61C123.146 30.7913 123.38 30.8911 123.618 30.8923C123.627 30.8923 123.633 30.8923 123.642 30.8923L130.974 30.1351C131.082 30.1248 131.162 30.041 131.167 29.9343L131.25 28.249C131.254 28.1801 131.225 28.1102 131.172 28.0608C131.126 28.0172 131.065 27.992 131.002 27.992V27.9908ZM34.0668 49.9058C33.9659 49.9058 33.8662 49.9035 33.7653 49.9001C31.9183 49.8335 30.2509 49.0603 29.0694 47.7203C27.9018 46.3952 27.3615 44.6892 27.5505 42.9167C27.8833 38.8026 27.9598 35.8966 28.0155 33.7742C28.0908 30.9324 28.1245 29.636 28.6717 28.8066C29.2642 27.9082 30.317 27.7832 32.229 27.5549L32.4528 27.5285C32.5548 27.5147 32.6557 27.5079 32.7566 27.5079C32.7833 27.5079 32.8088 27.5079 32.8354 27.509C33.4488 27.5308 34.0355 27.8027 34.4448 28.2547C34.8286 28.6781 35.0176 29.2173 34.9758 29.7725L34.3532 42.0149C34.3497 42.0666 34.3497 42.1193 34.3509 42.1733V42.1893C34.3509 42.2524 34.3509 42.3178 34.3497 42.3798C34.3544 42.8708 34.5492 43.3286 34.8947 43.6796C35.2344 44.0226 35.6808 44.2211 36.1527 44.2383C36.1736 44.2383 36.1945 44.2383 36.2165 44.2383C36.3753 44.2383 36.5365 44.2165 36.693 44.1752C36.707 44.1718 36.722 44.1683 36.7371 44.1661C36.7881 44.158 36.8855 44.1305 37.0652 44.0433L37.5511 43.7829C37.6972 43.7014 37.8351 43.6234 37.958 43.566L38.0763 43.5029C38.3952 43.3331 38.7569 43.2425 39.1222 43.2425C39.1488 43.2425 39.1755 43.2425 39.2022 43.2437C39.5431 43.2563 39.8863 43.3469 40.1924 43.5052C40.5947 43.7129 40.9252 44.0295 41.1489 44.4219C41.7681 45.5061 41.3947 46.8575 40.3164 47.4346L36.4925 49.4744C36.271 49.5972 35.7283 49.7509 35.5022 49.783C35.028 49.8645 34.5468 49.9058 34.0656 49.9058H34.0668ZM49.1297 47.0514C48.4699 47.0273 47.8589 46.7198 47.4554 46.2059C47.1667 45.8514 47.009 45.4441 47.0101 45.0552C47.0101 45.0414 47.0101 45.0265 47.0124 45.0127C47.0124 45.0024 47.0136 44.9932 47.0124 44.9829C47.0101 44.9164 47.0113 44.8533 47.0159 44.7902L47.5435 35.5031C47.5667 35.0935 47.7951 34.7333 48.1569 34.5406C48.2056 34.5165 53.0568 32.113 53.1055 32.0877C53.1693 32.0556 53.2389 32.0395 53.3096 32.0395H53.327C53.4916 32.0453 53.6389 32.1347 53.7212 32.277C53.7711 32.3642 54.2105 33.1753 54.1189 34.7138C54.0934 35.1371 54.0888 35.1658 54.0853 35.1865C54.0772 35.2312 54.0714 35.2679 54.0378 35.8335C53.8395 39.1502 53.6146 42.9087 53.5589 44.103V44.1247C53.5183 44.6536 53.218 45.1148 52.7554 45.3626L49.9981 46.83C49.7917 46.9378 49.5703 47.0055 49.3407 47.0308C49.3291 47.0319 49.3163 47.0342 49.3048 47.0376C49.2653 47.048 49.2247 47.0537 49.183 47.0537H49.1297V47.0514ZM95.0255 43.4548C94.9247 43.4548 94.8238 43.4525 94.7229 43.449C92.8747 43.3836 91.2085 42.6092 90.027 41.2692C88.8594 39.9441 88.3191 38.2382 88.5081 36.4657C88.8408 32.3516 88.9174 29.4456 88.973 27.3231C89.0484 24.4814 89.082 23.185 89.6293 22.3555C90.2218 21.4572 91.2746 21.3322 93.1866 21.105L93.4104 21.0786C93.5124 21.0648 93.6133 21.058 93.713 21.058C93.7397 21.058 93.7663 21.058 93.7918 21.0591C94.4052 21.0809 94.9919 21.3528 95.4012 21.8048C95.785 22.2282 95.974 22.7674 95.9322 23.3227L95.3096 35.5651C95.3061 35.6167 95.3061 35.6695 95.3073 35.7222V35.7383C95.3073 35.8014 95.3073 35.8668 95.3073 35.9287C95.3119 36.4198 95.5067 36.8775 95.8522 37.2286C96.192 37.5716 96.6384 37.7701 97.1103 37.7873C97.1312 37.7873 97.1532 37.7873 97.1741 37.7873C97.3329 37.7873 97.4941 37.7655 97.6506 37.7242C97.6657 37.7208 97.6807 37.7173 97.6958 37.715C97.7457 37.707 97.8431 37.6795 98.0228 37.5923L98.4935 37.3399C98.6478 37.2527 98.7892 37.1735 98.9156 37.1139L99.0339 37.0508C99.3527 36.881 99.7145 36.7903 100.08 36.7903C100.106 36.7903 100.133 36.7903 100.16 36.7915C100.502 36.8041 100.844 36.8936 101.15 37.053C101.552 37.2607 101.883 37.5773 102.106 37.9697C102.726 39.0539 102.352 40.4053 101.274 40.9824L97.45 43.0222C97.2286 43.145 96.6859 43.2987 96.4598 43.3308C95.9856 43.4123 95.5044 43.4536 95.0232 43.4536L95.0255 43.4548ZM78.1052 43.1393C78.0739 43.1393 78.0437 43.1393 78.0124 43.1381C76.9295 43.1002 75.8558 42.3912 74.9896 41.1419C74.8018 40.8711 74.6986 40.6107 74.7056 40.4306C74.7125 40.2723 74.803 40.1277 74.9433 40.052L80.8682 36.8844C80.8682 36.8844 80.8763 36.8798 80.8798 36.8775C81.5581 36.4588 82.3616 36.0308 83.1698 36.0308C83.1965 36.0308 83.2231 36.0308 83.2498 36.032C83.7588 36.0503 84.487 36.2637 85.0621 37.1747L85.0725 37.1919C85.1154 37.2664 85.1548 37.349 85.1943 37.442C85.6441 38.4791 85.2232 39.6917 84.2354 40.2069L80.0137 42.4635C79.5766 42.6976 79.3377 42.8249 79.2009 42.888C79.1823 42.896 79.1673 42.9064 79.1522 42.919C78.8136 43.0647 78.4611 43.1393 78.1052 43.1393ZM109.996 40.9446C109.336 40.9205 108.725 40.613 108.321 40.099C108.033 39.7445 107.875 39.3372 107.876 38.9483C107.876 38.9346 107.876 38.9196 107.878 38.9059C107.878 38.8955 107.88 38.8864 107.878 38.876C107.876 38.8095 107.877 38.7464 107.882 38.6833L108.409 29.3962C108.433 28.9867 108.661 28.6264 109.023 28.4337C109.065 28.413 113.923 26.0061 113.972 25.9809C114.035 25.9487 114.105 25.9327 114.177 25.9327H114.193C114.358 25.9384 114.505 26.0279 114.587 26.1701C114.607 26.2046 115.078 27.0409 114.985 28.6069C114.959 29.0303 114.955 29.0589 114.951 29.0796C114.943 29.1243 114.937 29.1611 114.904 29.7267C114.705 33.0434 114.481 36.8029 114.425 37.9961V38.0179C114.384 38.5468 114.084 39.008 113.621 39.2558L110.864 40.7231C110.658 40.831 110.436 40.8987 110.207 40.9239C110.195 40.925 110.182 40.9273 110.171 40.9308C110.131 40.9411 110.09 40.9468 110.048 40.9468H109.996V40.9446ZM44.7097 33.1937C44.683 33.1937 44.6564 33.1937 44.6297 33.1925C44.1207 33.1742 43.3925 32.9619 42.8174 32.0499L42.8058 32.0315C42.7629 31.9569 42.7235 31.8755 42.6841 31.7825C42.2342 30.7454 42.6551 29.5328 43.643 29.0176L47.8647 26.761C48.2995 26.5281 48.5383 26.4007 48.6775 26.3365C48.696 26.3285 48.7111 26.3181 48.7262 26.3055C49.0659 26.1598 49.4172 26.0853 49.7743 26.0853C49.8045 26.0853 49.8358 26.0853 49.8659 26.0864C50.9489 26.1243 52.0226 26.8333 52.8887 28.0826C53.0766 28.3534 53.1797 28.6127 53.1728 28.7939C53.1658 28.9523 53.0754 29.098 52.9351 29.1725L47.0101 32.3401C47.0101 32.3401 47.002 32.3447 46.9985 32.347C46.3202 32.7657 45.5167 33.1937 44.7086 33.1937H44.7097ZM105.576 27.088C105.549 27.088 105.522 27.088 105.496 27.0868C104.987 27.0685 104.26 26.8562 103.683 25.9441L103.672 25.9258C103.629 25.8512 103.589 25.7698 103.55 25.6757C103.1 24.6386 103.521 23.4259 104.509 22.9108L108.731 20.6541C109.165 20.4212 109.405 20.2939 109.543 20.2296C109.562 20.2216 109.578 20.2113 109.592 20.1987C109.932 20.053 110.283 19.9784 110.639 19.9784C110.669 19.9784 110.701 19.9784 110.731 19.9795C111.814 20.0174 112.887 20.7264 113.754 21.9758C113.941 22.2465 114.045 22.5058 114.038 22.6871C114.031 22.8454 113.94 22.9899 113.8 23.0657L107.875 26.2332C107.875 26.2332 107.867 26.2378 107.863 26.2401C107.185 26.6589 106.382 27.0868 105.573 27.0868L105.576 27.088ZM62.4359 52.2336C62.3802 52.2336 62.3269 52.2485 62.2794 52.2795C61.7738 52.611 61.2834 53.0022 60.7778 53.4738C59.4978 54.6704 58.7534 56.1767 58.8346 57.4077C58.8728 57.979 58.998 58.337 59.507 58.3553C59.5615 58.3576 59.6195 58.3588 59.6798 58.3588C60.4207 58.3588 61.3761 58.049 62.1878 55.6295C62.4985 54.7048 62.6481 53.569 62.7536 52.5789C62.7664 52.4642 62.7072 52.3483 62.6052 52.2841C62.553 52.2508 62.4939 52.2347 62.4359 52.2347V52.2336Z" fill="url(#paint1_linear_2955_958)"/>
<path d="M42.1808 13.4724C41.9605 13.4724 41.7425 13.5297 41.5512 13.6399L39.5326 14.7929C39.521 14.7986 39.5094 14.8043 39.4978 14.8089C39.4862 14.8135 39.4746 14.8181 39.463 14.825L37.4049 16.0009C37.3945 16.0066 37.384 16.0135 37.3759 16.0216C37.3655 16.0296 37.3551 16.0376 37.3435 16.0445L28.3215 21.198C28.2867 21.2186 28.2462 21.229 28.2056 21.229C28.165 21.229 28.1244 21.2186 28.0896 21.198C28.0177 21.1567 27.9737 21.081 27.9737 20.9995V11.4073C27.9737 11.3258 28.0177 11.249 28.0896 11.2088C28.1244 11.1882 28.165 11.1778 28.2056 11.1778C28.2462 11.1778 28.2867 11.1882 28.3215 11.2088L34.9561 14.9994C35.1103 15.0877 35.2865 15.1336 35.4639 15.1336C35.6413 15.1336 35.8176 15.0865 35.9718 14.9994L36.9307 14.4521C37.151 14.3259 37.282 14.1011 37.282 13.8498C37.282 13.5986 37.151 13.3725 36.9307 13.2475L27.3441 7.77048L27.3244 7.76015C27.2803 7.73606 27.2374 7.71541 27.1957 7.6982L27.1806 7.69247C27.14 7.6764 27.0971 7.66264 27.0519 7.65002C27.0403 7.64657 27.0299 7.64428 27.0159 7.64084C26.9777 7.63166 26.9394 7.62363 26.8954 7.61789C26.8849 7.61675 26.8745 7.61445 26.8629 7.6133C26.8084 7.60642 26.7597 7.60413 26.7122 7.60413C26.6646 7.60413 26.6159 7.60757 26.5603 7.6133C26.5498 7.61445 26.5406 7.6156 26.5243 7.61904C26.4849 7.62478 26.4466 7.63281 26.4061 7.64199L26.3724 7.65116C26.3284 7.66264 26.2901 7.67526 26.246 7.69361L26.231 7.69935C26.1892 7.71656 26.1486 7.73606 26.0953 7.76474L26.0826 7.77163L13.2111 15.1244L13.1926 15.1359C13.1705 15.1496 13.1485 15.1634 13.1207 15.1818C13.1114 15.1887 13.101 15.1944 13.0917 15.2024L13.072 15.2162L13.0256 15.254C13.0152 15.2632 13.0047 15.2713 12.9943 15.2804C12.985 15.2885 12.9757 15.2976 12.9688 15.3045L12.9294 15.3435C12.9213 15.3516 12.9131 15.3607 12.905 15.3688C12.8957 15.3791 12.8865 15.3894 12.876 15.4032C12.876 15.4032 12.8505 15.4319 12.8459 15.4388L12.8262 15.4651C12.8192 15.4743 12.8123 15.4835 12.8007 15.5019C12.7856 15.5237 12.7717 15.5443 12.7578 15.5673L12.7485 15.5822C12.7427 15.5913 12.7381 15.6005 12.7299 15.6166C12.7195 15.6372 12.7079 15.6579 12.6998 15.6762L12.6824 15.7152L12.6708 15.7428C12.665 15.7577 12.6581 15.7738 12.6523 15.7898C12.6453 15.8082 12.6395 15.8265 12.6314 15.8541L12.6221 15.8816L12.6152 15.9103C12.6105 15.9309 12.6059 15.9516 12.6024 15.9711C12.5989 15.9883 12.5896 16.0445 12.5896 16.0445C12.5873 16.0571 12.5873 16.0697 12.585 16.0893C12.5827 16.1076 12.5815 16.126 12.5804 16.1455C12.5804 16.1569 12.578 16.1994 12.578 16.2063V30.0617C12.578 30.1432 12.534 30.22 12.4621 30.2602L10.1594 31.5761C9.55759 31.9203 9.35004 32.6844 9.69789 33.2798C9.92283 33.6641 10.3414 33.9039 10.7901 33.9039C11.0104 33.9039 11.2272 33.8465 11.4197 33.7364L13.9022 32.3184C13.9115 32.3138 13.9196 32.3092 13.9312 32.3046C13.9404 32.3012 13.9497 32.2966 13.959 32.2908L16.0159 31.116C16.0252 31.1103 16.0333 31.1046 16.0426 31.0988C16.0507 31.0931 16.0588 31.0874 16.0681 31.0816L17.0374 30.5275C17.3296 30.3612 17.5383 30.0915 17.6253 29.7703C17.7122 29.4479 17.6682 29.1118 17.4989 28.8238C17.274 28.4395 16.8554 28.1997 16.4067 28.1997C16.1864 28.1997 15.9684 28.2571 15.7771 28.3672L15.4478 28.5554C15.413 28.576 15.3724 28.5863 15.3318 28.5863C15.2912 28.5863 15.2507 28.576 15.2159 28.5554C15.144 28.5141 15.0999 28.4383 15.0999 28.3569V21.7189C15.0999 21.6156 15.1707 21.5238 15.2715 21.4974C15.2912 21.4928 15.3109 21.4894 15.3318 21.4894C15.4141 21.4894 15.4918 21.533 15.5324 21.6041L22.8348 34.1184C22.887 34.2079 22.8719 34.3226 22.7977 34.3961C22.7537 34.4397 22.6957 34.4638 22.6343 34.4638C22.5937 34.4638 22.5542 34.4534 22.5183 34.4328L18.4056 32.0832C18.27 32.0052 18.1157 31.965 17.9592 31.965C17.8027 31.965 17.6485 32.0063 17.5128 32.0832L16.6873 32.5547C16.4264 32.7039 16.271 32.97 16.271 33.2683C16.271 33.5666 16.4264 33.8328 16.6873 33.9819L24.2645 38.3105C24.2993 38.33 24.3399 38.3415 24.3804 38.3415C24.4187 38.3415 24.4581 38.3323 24.4917 38.314C24.5625 38.2761 24.6089 38.2027 24.6123 38.1235C24.7016 36.3326 24.7399 34.871 24.77 33.6962C24.7805 33.2993 24.7909 32.9241 24.8013 32.5673C24.8025 32.5249 24.7921 32.4824 24.77 32.4457L17.7169 20.3571C17.6647 20.2676 17.6798 20.1528 17.754 20.0806C17.798 20.037 17.856 20.0129 17.9186 20.0129C17.9592 20.0129 17.9986 20.0232 18.0346 20.0439L25.337 24.2153C25.4089 24.2566 25.453 24.3323 25.453 24.4138V27.0467C25.453 27.1488 25.5225 27.2395 25.6222 27.267C25.6431 27.2727 25.664 27.2762 25.6849 27.2762C25.7672 27.2762 25.8391 27.2349 25.8843 27.1637C25.9075 27.127 25.9295 27.0915 25.9539 27.0548C26.4501 26.3033 27.0704 25.7388 27.8508 25.3304C27.9273 25.2903 27.9748 25.2134 27.9748 25.1274V24.4138C27.9748 24.3323 28.0189 24.2554 28.0908 24.2153L35.3932 20.0439C35.428 20.0244 35.4686 20.0129 35.5092 20.0129C35.5718 20.0129 35.6297 20.037 35.6726 20.0806C35.7469 20.154 35.7619 20.2676 35.7098 20.3571L33.5578 24.0443C33.5195 24.1086 33.516 24.1878 33.5485 24.2554C33.5809 24.3231 33.6436 24.3713 33.7178 24.3851C34.3821 24.5021 35.0129 24.7361 35.5926 25.0803C35.6286 25.1021 35.6703 25.1124 35.7121 25.1124C35.7318 25.1124 35.7515 25.1101 35.77 25.1056C35.8303 25.0906 35.8814 25.0505 35.9127 24.9977L37.8931 21.6041C37.9348 21.533 38.0113 21.4894 38.0937 21.4894C38.1134 21.4894 38.1342 21.4917 38.1539 21.4974C38.2548 21.5238 38.3256 21.6156 38.3256 21.7189V28.4934C38.3256 28.5795 38.3731 28.6575 38.4496 28.6965C38.4832 28.7137 38.5203 28.7229 38.5574 28.7229C38.605 28.7229 38.6514 28.708 38.6908 28.6816C38.6977 28.677 39.492 28.1286 40.7523 27.2108C40.8115 27.1672 40.8474 27.0984 40.8474 27.0261V17.0598C40.8474 16.9784 40.8915 16.9015 40.9634 16.8614L42.8127 15.8047C43.1049 15.6384 43.3136 15.3688 43.4006 15.0475C43.4876 14.7252 43.4435 14.3902 43.2742 14.1011C43.0493 13.7167 42.6307 13.4769 42.182 13.4769L42.1808 13.4724ZM25.4518 20.9995C25.4518 21.081 25.4077 21.1578 25.3358 21.198C25.3011 21.2186 25.2605 21.229 25.2199 21.229C25.1793 21.229 25.1387 21.2186 25.104 21.198L16.7093 16.4025C16.6374 16.3612 16.5933 16.2854 16.5933 16.204C16.5933 16.1225 16.6374 16.0457 16.7093 16.0055L25.104 11.21C25.1387 11.1893 25.1793 11.179 25.2199 11.179C25.2605 11.179 25.3011 11.1893 25.3358 11.21C25.4077 11.2513 25.4518 11.327 25.4518 11.4084V20.9995Z" fill="#FF94B7"/>
<path d="M7.85546 33.1672C7.17368 33.1672 6.61829 33.7168 6.61829 34.3914C6.61829 35.0659 7.17368 35.6155 7.85546 35.6155C8.53723 35.6155 9.09262 35.0659 9.09262 34.3914C9.09262 33.7168 8.53723 33.1672 7.85546 33.1672Z" fill="#FF94B7"/>
<path d="M45.1074 11.7778C44.4256 11.7778 43.8702 12.3274 43.8702 13.002C43.8702 13.6765 44.4256 14.2261 45.1074 14.2261C45.7892 14.2261 46.3446 13.6765 46.3446 13.002C46.3446 12.3274 45.7892 11.7778 45.1074 11.7778Z" fill="#FF94B7"/>
<path d="M47.7418 10.1773C47.2293 10.2611 46.8165 10.6695 46.7318 11.1766C46.5915 12.013 47.3162 12.7288 48.1615 12.5912C48.674 12.5074 49.0868 12.099 49.1714 11.5919C49.3117 10.7556 48.587 10.0397 47.7418 10.1773Z" fill="#FF94B7"/>
<defs>
<linearGradient id="paint0_linear_2955_958" x1="0" y1="35.0005" x2="163.1" y2="35.0005" gradientUnits="userSpaceOnUse">
<stop offset="0.2" stop-color="#A2CEFC"/>
<stop offset="0.49" stop-color="#BF9FED"/>
<stop offset="0.91" stop-color="#FF92B9"/>
</linearGradient>
<linearGradient id="paint1_linear_2955_958" x1="25.7087" y1="45.1833" x2="154.294" y2="32.2221" gradientUnits="userSpaceOnUse">
<stop offset="0.2" stop-color="#A2CEFC"/>
<stop offset="0.49" stop-color="#BF9FED"/>
<stop offset="0.81" stop-color="#FF92B9"/>
</linearGradient>
</defs>
</svg>
